<mxfile host="Electron" agent="Mozilla/5.0 (Macintosh; Intel Mac OS X 10_15_7) AppleWebKit/537.36 (KHTML, like Gecko) draw.io/28.2.8 Chrome/140.0.7339.240 Electron/38.4.0 Safari/537.36" version="28.2.8">
  <diagram name="Page-1" id="ZldH0aKi5UqgQ7eC_7g8">
    <mxGraphModel dx="973" dy="724" grid="1" gridSize="10" guides="1" tooltips="1" connect="1" arrows="1" fold="1" page="1" pageScale="1" pageWidth="850" pageHeight="1100" math="0" shadow="0">
      <root>
        <mxCell id="0" />
        <mxCell id="1" parent="0" />
        <mxCell id="YU0cE5sHEbJRWd8VdbuE-1" value="" style="rounded=0;whiteSpace=wrap;html=1;" vertex="1" parent="1">
          <mxGeometry x="210" y="120" width="380" height="530" as="geometry" />
        </mxCell>
        <mxCell id="YU0cE5sHEbJRWd8VdbuE-11" style="edgeStyle=orthogonalEdgeStyle;rounded=0;orthogonalLoop=1;jettySize=auto;html=1;entryX=0;entryY=0.5;entryDx=0;entryDy=0;endArrow=none;endFill=0;" edge="1" parent="1" source="YU0cE5sHEbJRWd8VdbuE-2" target="YU0cE5sHEbJRWd8VdbuE-8">
          <mxGeometry relative="1" as="geometry" />
        </mxCell>
        <mxCell id="YU0cE5sHEbJRWd8VdbuE-2" value="khách hàng" style="shape=umlActor;verticalLabelPosition=bottom;verticalAlign=top;html=1;outlineConnect=0;" vertex="1" parent="1">
          <mxGeometry x="100" y="170" width="30" height="60" as="geometry" />
        </mxCell>
        <mxCell id="YU0cE5sHEbJRWd8VdbuE-3" value="tài xế" style="shape=umlActor;verticalLabelPosition=bottom;verticalAlign=top;html=1;outlineConnect=0;" vertex="1" parent="1">
          <mxGeometry x="120" y="460" width="30" height="60" as="geometry" />
        </mxCell>
        <mxCell id="YU0cE5sHEbJRWd8VdbuE-4" value="hệ thống thanh toán" style="shape=umlActor;verticalLabelPosition=bottom;verticalAlign=top;html=1;outlineConnect=0;" vertex="1" parent="1">
          <mxGeometry x="660" y="450" width="30" height="60" as="geometry" />
        </mxCell>
        <mxCell id="YU0cE5sHEbJRWd8VdbuE-12" style="edgeStyle=orthogonalEdgeStyle;rounded=0;orthogonalLoop=1;jettySize=auto;html=1;entryX=1;entryY=0.5;entryDx=0;entryDy=0;dashed=1;" edge="1" parent="1" source="YU0cE5sHEbJRWd8VdbuE-7" target="YU0cE5sHEbJRWd8VdbuE-8">
          <mxGeometry relative="1" as="geometry" />
        </mxCell>
        <mxCell id="YU0cE5sHEbJRWd8VdbuE-7" value="xem vị trí tài xế" style="ellipse;whiteSpace=wrap;html=1;" vertex="1" parent="1">
          <mxGeometry x="460" y="160" width="120" height="80" as="geometry" />
        </mxCell>
        <mxCell id="YU0cE5sHEbJRWd8VdbuE-15" style="edgeStyle=orthogonalEdgeStyle;rounded=0;orthogonalLoop=1;jettySize=auto;html=1;dashed=1;" edge="1" parent="1" source="YU0cE5sHEbJRWd8VdbuE-8" target="YU0cE5sHEbJRWd8VdbuE-9">
          <mxGeometry relative="1" as="geometry" />
        </mxCell>
        <mxCell id="YU0cE5sHEbJRWd8VdbuE-8" value="đặt xe" style="ellipse;whiteSpace=wrap;html=1;" vertex="1" parent="1">
          <mxGeometry x="260" y="160" width="120" height="80" as="geometry" />
        </mxCell>
        <mxCell id="YU0cE5sHEbJRWd8VdbuE-9" value="thanh toán" style="ellipse;whiteSpace=wrap;html=1;" vertex="1" parent="1">
          <mxGeometry x="260" y="320" width="120" height="80" as="geometry" />
        </mxCell>
        <mxCell id="YU0cE5sHEbJRWd8VdbuE-17" style="edgeStyle=orthogonalEdgeStyle;rounded=0;orthogonalLoop=1;jettySize=auto;html=1;entryX=1;entryY=0.5;entryDx=0;entryDy=0;dashed=1;" edge="1" parent="1" source="YU0cE5sHEbJRWd8VdbuE-10" target="YU0cE5sHEbJRWd8VdbuE-9">
          <mxGeometry relative="1" as="geometry" />
        </mxCell>
        <mxCell id="YU0cE5sHEbJRWd8VdbuE-10" value="nhận khuyến mãi" style="ellipse;whiteSpace=wrap;html=1;" vertex="1" parent="1">
          <mxGeometry x="460" y="320" width="120" height="80" as="geometry" />
        </mxCell>
        <mxCell id="YU0cE5sHEbJRWd8VdbuE-13" value="&amp;lt;&amp;lt;extend&amp;gt;&amp;gt;" style="text;html=1;whiteSpace=wrap;strokeColor=none;fillColor=none;align=center;verticalAlign=middle;rounded=0;" vertex="1" parent="1">
          <mxGeometry x="395" y="170" width="60" height="30" as="geometry" />
        </mxCell>
        <mxCell id="YU0cE5sHEbJRWd8VdbuE-16" value="&amp;lt;&amp;lt;include&amp;gt;&amp;gt;" style="text;html=1;whiteSpace=wrap;strokeColor=none;fillColor=none;align=center;verticalAlign=middle;rounded=0;" vertex="1" parent="1">
          <mxGeometry x="330" y="260" width="60" height="30" as="geometry" />
        </mxCell>
        <mxCell id="YU0cE5sHEbJRWd8VdbuE-18" value="&amp;lt;&amp;lt;extend&amp;gt;&amp;gt;" style="text;html=1;whiteSpace=wrap;strokeColor=none;fillColor=none;align=center;verticalAlign=middle;rounded=0;" vertex="1" parent="1">
          <mxGeometry x="390" y="330" width="60" height="30" as="geometry" />
        </mxCell>
      </root>
    </mxGraphModel>
  </diagram>
</mxfile>
